<svg width="22" height="22" viewBox="0 0 22 22" fill="none" xmlns="http://www.w3.org/2000/svg">
<path d="M11 1C16.5228 1 21 5.47715 21 11C21 16.5228 16.5228 21 11 21C5.47715 21 1 16.5228 1 11C1 5.47715 5.47715 1 11 1ZM14.1963 5.3623C13.6457 5.68895 13.1086 5.93552 12.5859 6.10352C12.0727 6.27149 11.4428 6.34677 10.6963 6.32812C9.71629 6.32812 8.92741 6.57565 8.33008 7.07031C7.73283 7.55563 7.43361 8.21335 7.43359 9.04395C7.43359 9.52928 7.53685 9.94471 7.74219 10.29C7.95681 10.6259 8.29721 10.9199 8.76367 11.1719C8.49309 11.3399 8.27875 11.5551 8.12012 11.8164C7.96163 12.0682 7.88191 12.3292 7.88184 12.5996C7.88184 13.0289 8.06905 13.3841 8.44238 13.6641C8.82505 13.9346 9.39892 14.0703 10.1641 14.0703H11.2422C11.5967 14.0703 11.8627 14.1351 12.04 14.2656C12.2173 14.3963 12.3056 14.5739 12.3057 14.7979C12.3057 15.0685 12.1894 15.2741 11.9561 15.4141C11.7228 15.5634 11.3028 15.6377 10.6963 15.6377C10.2579 15.6377 9.92179 15.6053 9.68848 15.54C9.45525 15.4747 9.2916 15.3767 9.19824 15.2461C9.11424 15.1154 9.07227 14.9379 9.07227 14.7139H7.08398C7.08398 15.2363 7.18645 15.6704 7.3916 16.0156C7.60627 16.361 7.97538 16.6278 8.49805 16.8145C9.02063 17.0104 9.73459 17.1084 10.6396 17.1084C11.8996 17.1084 12.8617 16.8889 13.5244 16.4502C14.1963 16.0209 14.5322 15.4181 14.5322 14.6436C14.5321 14.2331 14.4149 13.8646 14.1816 13.5381C13.9484 13.2115 13.6176 12.9542 13.1885 12.7676C12.7593 12.581 12.2596 12.4883 11.6904 12.4883H10.5703C10.2437 12.4883 10.0241 12.4506 9.91211 12.376C9.80945 12.292 9.75782 12.18 9.75781 12.04C9.75781 11.956 9.77712 11.8764 9.81445 11.8018C9.86109 11.718 9.92154 11.6574 9.99609 11.6201C10.2666 11.6761 10.5511 11.7041 10.8496 11.7041C11.4843 11.7041 12.0353 11.5965 12.502 11.3818C12.9779 11.1672 13.3418 10.8733 13.5938 10.5C13.8458 10.1173 13.9717 9.68791 13.9717 9.21191C13.9717 8.73595 13.8597 8.34845 13.6357 8.0498C13.4118 7.75129 13.0574 7.49921 12.5723 7.29395C13.5147 7.29393 14.2286 7.19595 14.7139 7L14.1963 5.3623ZM10.752 7.78418C11.4986 7.78418 11.8721 8.18561 11.8721 8.98828C11.872 9.41747 11.7741 9.73948 11.5781 9.9541C11.3915 10.1688 11.116 10.2764 10.752 10.2764C10.4066 10.2764 10.1311 10.1688 9.92578 9.9541C9.72981 9.7301 9.63184 9.41693 9.63184 9.01562C9.6319 8.63324 9.72995 8.3347 9.92578 8.12012C10.1311 7.89613 10.4066 7.78419 10.752 7.78418Z" fill="#FF3838"/>
</svg>
