<svg width="40" height="40" viewBox="0 0 40 40" fill="none" xmlns="http://www.w3.org/2000/svg">
<path d="M6.66671 33.3333C5.75004 33.3333 4.96532 33.007 4.31254 32.3542C3.65976 31.7014 3.33337 30.9167 3.33337 30V10C3.33337 9.08334 3.65976 8.29862 4.31254 7.64584C4.96532 6.99306 5.75004 6.66667 6.66671 6.66667H33.3334C34.25 6.66667 35.0348 6.99306 35.6875 7.64584C36.3403 8.29862 36.6667 9.08334 36.6667 10V30C36.6667 30.9167 36.3403 31.7014 35.6875 32.3542C35.0348 33.007 34.25 33.3333 33.3334 33.3333H6.66671ZM33.3334 13.3333L20.875 21.125C20.7362 21.2083 20.5903 21.2708 20.4375 21.3125C20.2848 21.3542 20.1389 21.375 20 21.375C19.8612 21.375 19.7153 21.3542 19.5625 21.3125C19.4098 21.2708 19.2639 21.2083 19.125 21.125L6.66671 13.3333V30H33.3334V13.3333ZM20 18.3333L33.3334 10H6.66671L20 18.3333ZM6.66671 13.75V11.2917V11.3333V11.3125V13.75Z" fill="#EDEDED"/>
</svg>
