<svg width="40" height="40" viewBox="0 0 40 40" fill="none" xmlns="http://www.w3.org/2000/svg">
<path d="M25 33.3333C24.5278 33.3333 24.132 33.1736 23.8125 32.8542C23.4931 32.5347 23.3334 32.1389 23.3334 31.6667C23.3334 31.1944 23.4931 30.7986 23.8125 30.4792C24.132 30.1597 24.5278 30 25 30H28.3334C28.8056 30 29.2014 29.8403 29.5209 29.5208C29.8403 29.2014 30 28.8056 30 28.3333V25C30 23.9444 30.3056 22.9861 30.9167 22.125C31.5278 21.2639 32.3334 20.6528 33.3334 20.2917V19.7083C32.3334 19.3472 31.5278 18.7361 30.9167 17.875C30.3056 17.0139 30 16.0556 30 15V11.6667C30 11.1944 29.8403 10.7986 29.5209 10.4792C29.2014 10.1597 28.8056 10 28.3334 10H25C24.5278 10 24.132 9.84028 23.8125 9.52083C23.4931 9.20139 23.3334 8.80556 23.3334 8.33333C23.3334 7.86111 23.4931 7.46528 23.8125 7.14583C24.132 6.82639 24.5278 6.66667 25 6.66667H28.3334C29.7223 6.66667 30.9028 7.15278 31.875 8.125C32.8473 9.09722 33.3334 10.2778 33.3334 11.6667V15C33.3334 15.4722 33.4931 15.8681 33.8125 16.1875C34.132 16.5069 34.5278 16.6667 35 16.6667C35.4723 16.6667 35.8681 16.8264 36.1875 17.1458C36.507 17.4653 36.6667 17.8611 36.6667 18.3333V21.6667C36.6667 22.1389 36.507 22.5347 36.1875 22.8542C35.8681 23.1736 35.4723 23.3333 35 23.3333C34.5278 23.3333 34.132 23.4931 33.8125 23.8125C33.4931 24.1319 33.3334 24.5278 33.3334 25V28.3333C33.3334 29.7222 32.8473 30.9028 31.875 31.875C30.9028 32.8472 29.7223 33.3333 28.3334 33.3333H25ZM11.6667 33.3333C10.2778 33.3333 9.09726 32.8472 8.12504 31.875C7.15282 30.9028 6.66671 29.7222 6.66671 28.3333V25C6.66671 24.5278 6.50698 24.1319 6.18754 23.8125C5.8681 23.4931 5.47226 23.3333 5.00004 23.3333C4.52782 23.3333 4.13199 23.1736 3.81254 22.8542C3.4931 22.5347 3.33337 22.1389 3.33337 21.6667V18.3333C3.33337 17.8611 3.4931 17.4653 3.81254 17.1458C4.13199 16.8264 4.52782 16.6667 5.00004 16.6667C5.47226 16.6667 5.8681 16.5069 6.18754 16.1875C6.50698 15.8681 6.66671 15.4722 6.66671 15V11.6667C6.66671 10.2778 7.15282 9.09722 8.12504 8.125C9.09726 7.15278 10.2778 6.66667 11.6667 6.66667H15C15.4723 6.66667 15.8681 6.82639 16.1875 7.14583C16.507 7.46528 16.6667 7.86111 16.6667 8.33333C16.6667 8.80556 16.507 9.20139 16.1875 9.52083C15.8681 9.84028 15.4723 10 15 10H11.6667C11.1945 10 10.7987 10.1597 10.4792 10.4792C10.1598 10.7986 10 11.1944 10 11.6667V15C10 16.0556 9.69448 17.0139 9.08337 17.875C8.47226 18.7361 7.66671 19.3472 6.66671 19.7083V20.2917C7.66671 20.6528 8.47226 21.2639 9.08337 22.125C9.69448 22.9861 10 23.9444 10 25V28.3333C10 28.8056 10.1598 29.2014 10.4792 29.5208C10.7987 29.8403 11.1945 30 11.6667 30H15C15.4723 30 15.8681 30.1597 16.1875 30.4792C16.507 30.7986 16.6667 31.1944 16.6667 31.6667C16.6667 32.1389 16.507 32.5347 16.1875 32.8542C15.8681 33.1736 15.4723 33.3333 15 33.3333H11.6667Z" fill="#EDEDED"/>
</svg>
