<svg width="485" height="50" viewBox="0 0 485 50" fill="none" xmlns="http://www.w3.org/2000/svg">
<path d="M15.936 4.848C20.224 4.848 23.92 6.208 27.024 8.928L23.04 13.104C21.856 12.208 20.752 11.568 19.728 11.184C18.736 10.768 17.584 10.56 16.272 10.56C13.808 10.56 11.84 11.536 10.368 13.488C8.896 15.408 8.16 18.336 8.16 22.272C8.16 26.528 8.72 29.552 9.84 31.344C10.96 33.104 12.704 33.984 15.072 33.984C16.736 33.984 18.24 33.616 19.584 32.88V25.344H15.264L14.496 19.776H27.216V36.24C25.488 37.36 23.584 38.224 21.504 38.832C19.424 39.44 17.344 39.744 15.264 39.744C10.208 39.744 6.4 38.272 3.84 35.328C1.28 32.352 0 28 0 22.272C0 18.624 0.688 15.488 2.064 12.864C3.472 10.24 5.376 8.256 7.776 6.912C10.208 5.536 12.928 4.848 15.936 4.848Z" fill="#090909"/>
<path d="M52.5855 31.536C52.5855 32.496 52.7135 33.2 52.9695 33.648C53.2575 34.096 53.7055 34.432 54.3135 34.656L52.7295 39.6C51.1615 39.472 49.8815 39.136 48.8895 38.592C47.8975 38.016 47.1295 37.12 46.5855 35.904C44.9215 38.464 42.3615 39.744 38.9055 39.744C36.3775 39.744 34.3615 39.008 32.8575 37.536C31.3535 36.064 30.6015 34.144 30.6015 31.776C30.6015 28.992 31.6255 26.864 33.6735 25.392C35.7215 23.92 38.6815 23.184 42.5535 23.184H45.1455V22.08C45.1455 20.576 44.8255 19.552 44.1855 19.008C43.5455 18.432 42.4255 18.144 40.8255 18.144C39.9935 18.144 38.9855 18.272 37.8015 18.528C36.6175 18.752 35.4015 19.072 34.1535 19.488L32.4255 14.496C34.0255 13.888 35.6575 13.424 37.3215 13.104C39.0175 12.784 40.5855 12.624 42.0255 12.624C45.6735 12.624 48.3455 13.376 50.0415 14.88C51.7375 16.384 52.5855 18.64 52.5855 21.648V31.536ZM41.1135 34.32C42.8415 34.32 44.1855 33.504 45.1455 31.872V27.36H43.2735C41.5455 27.36 40.2495 27.664 39.3855 28.272C38.5535 28.88 38.1375 29.824 38.1375 31.104C38.1375 32.128 38.3935 32.928 38.9055 33.504C39.4495 34.048 40.1855 34.32 41.1135 34.32Z" fill="#090909"/>
<path d="M73.0744 12.624C76.1144 12.624 78.4504 13.824 80.0824 16.224C81.7144 18.592 82.5304 21.92 82.5304 26.208C82.5304 28.832 82.1144 31.168 81.2824 33.216C80.4824 35.264 79.3144 36.864 77.7784 38.016C76.2744 39.168 74.4824 39.744 72.4024 39.744C71.0264 39.744 69.7624 39.456 68.6104 38.88C67.4904 38.304 66.5304 37.504 65.7304 36.48L65.3464 38.928H58.6264V3.312L66.2104 2.496V16.032C66.9784 14.976 67.9544 14.144 69.1384 13.536C70.3544 12.928 71.6664 12.624 73.0744 12.624ZM70.1944 34.224C73.1704 34.224 74.6584 31.552 74.6584 26.208C74.6584 23.168 74.3064 21.072 73.6024 19.92C72.8984 18.768 71.8744 18.192 70.5304 18.192C68.8344 18.192 67.3944 19.184 66.2104 21.168V31.776C66.6904 32.544 67.2664 33.152 67.9384 33.6C68.6424 34.016 69.3944 34.224 70.1944 34.224Z" fill="#090909"/>
<path d="M101.091 12.72C102.019 12.72 102.867 12.832 103.635 13.056L102.435 20.4C101.475 20.176 100.707 20.064 100.131 20.064C98.627 20.064 97.475 20.592 96.675 21.648C95.907 22.672 95.299 24.224 94.851 26.304V38.928H87.267V13.44H93.891L94.515 18.384C95.091 16.624 95.955 15.248 97.107 14.256C98.291 13.232 99.619 12.72 101.091 12.72Z" fill="#090909"/>
<path d="M114.117 13.44V38.928H106.533V13.44H114.117ZM110.277 0C111.589 0 112.661 0.416 113.493 1.248C114.357 2.048 114.789 3.072 114.789 4.32C114.789 5.568 114.357 6.608 113.493 7.44C112.661 8.24 111.589 8.64 110.277 8.64C108.965 8.64 107.893 8.24 107.061 7.44C106.229 6.608 105.813 5.568 105.813 4.32C105.813 3.072 106.229 2.048 107.061 1.248C107.893 0.416 108.965 0 110.277 0Z" fill="#090909"/>
<path d="M142.303 25.68C142.303 26.736 142.256 27.648 142.16 28.416H126.368C126.624 30.56 127.231 32.064 128.191 32.928C129.151 33.792 130.48 34.224 132.176 34.224C133.2 34.224 134.192 34.048 135.152 33.696C136.112 33.312 137.151 32.736 138.271 31.968L141.391 36.192C138.415 38.56 135.104 39.744 131.456 39.744C127.328 39.744 124.159 38.528 121.951 36.096C119.743 33.664 118.64 30.4 118.64 26.304C118.64 23.712 119.104 21.392 120.032 19.344C120.96 17.264 122.32 15.632 124.112 14.448C125.904 13.232 128.048 12.624 130.544 12.624C134.224 12.624 137.104 13.776 139.184 16.08C141.264 18.384 142.303 21.584 142.303 25.68ZM134.863 23.52C134.799 19.616 133.424 17.664 130.736 17.664C129.424 17.664 128.399 18.144 127.663 19.104C126.959 20.064 126.528 21.648 126.368 23.856H134.863V23.52Z" fill="#090909"/>
<path d="M153.332 39.744C151.124 39.744 149.396 39.12 148.148 37.872C146.932 36.592 146.324 34.784 146.324 32.448V3.312L153.908 2.496V32.16C153.908 33.216 154.34 33.744 155.204 33.744C155.652 33.744 156.068 33.664 156.452 33.504L157.94 38.88C156.564 39.456 155.028 39.744 153.332 39.744Z" fill="#090909"/>
<path d="M189.868 38.928L188.141 31.776H178.445L176.764 38.928H168.605L178.637 5.664H188.189L198.221 38.928H189.868ZM179.788 26.064H186.797L183.292 11.376L179.788 26.064Z" fill="#090909"/>
<path d="M215.445 12.624C217.653 12.624 219.381 13.296 220.629 14.64C221.877 15.984 222.501 17.872 222.501 20.304V38.928H214.917V21.6C214.917 20.32 214.709 19.44 214.293 18.96C213.909 18.448 213.317 18.192 212.517 18.192C210.981 18.192 209.509 19.296 208.101 21.504V38.928H200.517V13.44H207.141L207.669 16.464C208.757 15.184 209.925 14.224 211.173 13.584C212.453 12.944 213.877 12.624 215.445 12.624Z" fill="#090909"/>
<path d="M235.756 36.048C235.756 38.704 235.324 40.896 234.46 42.624C233.628 44.352 232.476 45.728 231.004 46.752C229.564 47.808 227.74 48.736 225.532 49.536L222.988 44.016C224.236 43.44 225.212 42.88 225.916 42.336C226.62 41.792 227.164 41.056 227.548 40.128C227.964 39.232 228.172 38.032 228.172 36.528V13.44H235.756V36.048ZM231.964 0C233.276 0 234.348 0.416 235.18 1.248C236.044 2.048 236.476 3.072 236.476 4.32C236.476 5.568 236.044 6.608 235.18 7.44C234.348 8.24 233.276 8.64 231.964 8.64C230.652 8.64 229.58 8.24 228.748 7.44C227.916 6.608 227.5 5.568 227.5 4.32C227.5 3.072 227.916 2.048 228.748 1.248C229.58 0.416 230.652 0 231.964 0Z" fill="#090909"/>
<path d="M252.76 12.624C256.664 12.624 259.72 13.824 261.928 16.224C264.136 18.592 265.24 21.92 265.24 26.208C265.24 28.928 264.728 31.312 263.704 33.36C262.712 35.376 261.272 36.944 259.384 38.064C257.528 39.184 255.32 39.744 252.76 39.744C248.888 39.744 245.832 38.56 243.592 36.192C241.384 33.792 240.28 30.448 240.28 26.16C240.28 23.44 240.776 21.072 241.768 19.056C242.792 17.008 244.232 15.424 246.088 14.304C247.976 13.184 250.2 12.624 252.76 12.624ZM252.76 18.192C251.224 18.192 250.072 18.848 249.304 20.16C248.536 21.44 248.152 23.44 248.152 26.16C248.152 28.944 248.52 30.976 249.256 32.256C250.024 33.536 251.192 34.176 252.76 34.176C254.296 34.176 255.448 33.536 256.216 32.256C256.984 30.944 257.368 28.928 257.368 26.208C257.368 23.424 256.984 21.392 256.216 20.112C255.48 18.832 254.328 18.192 252.76 18.192Z" fill="#090909"/>
<path d="M346.776 29.768C346.776 30.568 346.883 31.1547 347.096 31.528C347.336 31.9013 347.709 32.1813 348.216 32.368L346.896 36.488C345.589 36.3813 344.523 36.1013 343.696 35.648C342.869 35.168 342.229 34.4213 341.776 33.408C340.389 35.5413 338.256 36.608 335.376 36.608C333.269 36.608 331.589 35.9947 330.336 34.768C329.083 33.5413 328.456 31.9413 328.456 29.968C328.456 27.648 329.309 25.8747 331.016 24.648C332.723 23.4213 335.189 22.808 338.416 22.808H340.576V21.888C340.576 20.6347 340.309 19.7813 339.776 19.328C339.243 18.848 338.309 18.608 336.976 18.608C336.283 18.608 335.443 18.7147 334.456 18.928C333.469 19.1147 332.456 19.3813 331.416 19.728L329.976 15.568C331.309 15.0613 332.669 14.6747 334.056 14.408C335.469 14.1413 336.776 14.008 337.976 14.008C341.016 14.008 343.243 14.6347 344.656 15.888C346.069 17.1413 346.776 19.0213 346.776 21.528V29.768ZM337.216 32.088C338.656 32.088 339.776 31.408 340.576 30.048V26.288H339.016C337.576 26.288 336.496 26.5413 335.776 27.048C335.083 27.5547 334.736 28.3413 334.736 29.408C334.736 30.2613 334.949 30.928 335.376 31.408C335.829 31.8613 336.443 32.088 337.216 32.088Z" fill="#545454"/>
<path d="M364.25 14.008C366.09 14.008 367.53 14.568 368.57 15.688C369.61 16.808 370.13 18.3813 370.13 20.408V35.928H363.81V21.488C363.81 20.4213 363.637 19.688 363.29 19.288C362.97 18.8613 362.477 18.648 361.81 18.648C360.53 18.648 359.303 19.568 358.13 21.408V35.928H351.81V14.688H357.33L357.77 17.208C358.677 16.1413 359.65 15.3413 360.69 14.808C361.757 14.2747 362.943 14.008 364.25 14.008Z" fill="#545454"/>
<path d="M394.456 15.928C393.069 16.488 391.029 16.768 388.336 16.768C389.723 17.3547 390.736 18.0747 391.376 18.928C392.016 19.7813 392.336 20.888 392.336 22.248C392.336 23.608 391.976 24.8347 391.256 25.928C390.536 26.9947 389.496 27.8347 388.136 28.448C386.803 29.0613 385.229 29.368 383.416 29.368C382.563 29.368 381.749 29.288 380.976 29.128C380.763 29.2347 380.589 29.408 380.456 29.648C380.349 29.8613 380.296 30.088 380.296 30.328C380.296 30.728 380.443 31.048 380.736 31.288C381.056 31.5013 381.683 31.608 382.616 31.608H385.816C387.443 31.608 388.869 31.8747 390.096 32.408C391.323 32.9413 392.269 33.6747 392.936 34.608C393.603 35.5413 393.936 36.5947 393.936 37.768C393.936 39.9813 392.976 41.7013 391.056 42.928C389.163 44.1813 386.416 44.808 382.816 44.808C380.229 44.808 378.189 44.528 376.696 43.968C375.203 43.4347 374.149 42.6747 373.536 41.688C372.949 40.7013 372.656 39.4613 372.656 37.968H378.336C378.336 38.608 378.456 39.1147 378.696 39.488C378.963 39.8613 379.429 40.1413 380.096 40.328C380.763 40.5147 381.723 40.608 382.976 40.608C384.709 40.608 385.909 40.3947 386.576 39.968C387.243 39.568 387.576 38.9813 387.576 38.208C387.576 37.568 387.323 37.0613 386.816 36.688C386.309 36.3147 385.549 36.128 384.536 36.128H381.456C379.269 36.128 377.629 35.7413 376.536 34.968C375.469 34.168 374.936 33.1547 374.936 31.928C374.936 31.1547 375.163 30.408 375.616 29.688C376.069 28.9413 376.683 28.328 377.456 27.848C376.123 27.128 375.149 26.288 374.536 25.328C373.949 24.3413 373.656 23.1547 373.656 21.768C373.656 19.3947 374.509 17.5147 376.216 16.128C377.923 14.7147 380.176 14.008 382.976 14.008C385.109 14.0613 386.909 13.848 388.376 13.368C389.869 12.888 391.403 12.1813 392.976 11.248L394.456 15.928ZM383.136 18.168C382.149 18.168 381.363 18.488 380.776 19.128C380.216 19.7413 379.936 20.5947 379.936 21.688C379.936 22.8347 380.216 23.728 380.776 24.368C381.363 24.9813 382.149 25.288 383.136 25.288C384.176 25.288 384.963 24.9813 385.496 24.368C386.056 23.7547 386.336 22.8347 386.336 21.608C386.336 19.3147 385.269 18.168 383.136 18.168Z" fill="#545454"/>
<path d="M403.247 14.688V35.928H396.927V14.688H403.247ZM400.047 3.488C401.141 3.488 402.034 3.83467 402.727 4.528C403.447 5.19467 403.807 6.048 403.807 7.088C403.807 8.128 403.447 8.99467 402.727 9.688C402.034 10.3547 401.141 10.688 400.047 10.688C398.954 10.688 398.061 10.3547 397.367 9.688C396.674 8.99467 396.327 8.128 396.327 7.088C396.327 6.048 396.674 5.19467 397.367 4.528C398.061 3.83467 398.954 3.488 400.047 3.488Z" fill="#545454"/>
<path d="M417.416 14.008C420.67 14.008 423.216 15.008 425.056 17.008C426.896 18.9813 427.816 21.7547 427.816 25.328C427.816 27.5947 427.39 29.5813 426.536 31.288C425.71 32.968 424.51 34.2747 422.936 35.208C421.39 36.1413 419.55 36.608 417.416 36.608C414.19 36.608 411.643 35.6213 409.776 33.648C407.936 31.648 407.016 28.8613 407.016 25.288C407.016 23.0213 407.43 21.048 408.256 19.368C409.11 17.6613 410.31 16.3413 411.856 15.408C413.43 14.4747 415.283 14.008 417.416 14.008ZM417.416 18.648C416.136 18.648 415.176 19.1947 414.536 20.288C413.896 21.3547 413.576 23.0213 413.576 25.288C413.576 27.608 413.883 29.3013 414.496 30.368C415.136 31.4347 416.11 31.968 417.416 31.968C418.696 31.968 419.656 31.4347 420.296 30.368C420.936 29.2747 421.256 27.5947 421.256 25.328C421.256 23.008 420.936 21.3147 420.296 20.248C419.683 19.1813 418.723 18.648 417.416 18.648Z" fill="#545454"/>
<path d="M451.136 15.928C449.749 16.488 447.709 16.768 445.016 16.768C446.402 17.3547 447.416 18.0747 448.056 18.928C448.696 19.7813 449.016 20.888 449.016 22.248C449.016 23.608 448.656 24.8347 447.936 25.928C447.216 26.9947 446.176 27.8347 444.816 28.448C443.482 29.0613 441.909 29.368 440.096 29.368C439.242 29.368 438.429 29.288 437.656 29.128C437.442 29.2347 437.269 29.408 437.136 29.648C437.029 29.8613 436.976 30.088 436.976 30.328C436.976 30.728 437.122 31.048 437.416 31.288C437.736 31.5013 438.362 31.608 439.296 31.608H442.496C444.122 31.608 445.549 31.8747 446.776 32.408C448.002 32.9413 448.949 33.6747 449.616 34.608C450.282 35.5413 450.616 36.5947 450.616 37.768C450.616 39.9813 449.656 41.7013 447.736 42.928C445.842 44.1813 443.096 44.808 439.496 44.808C436.909 44.808 434.869 44.528 433.376 43.968C431.882 43.4347 430.829 42.6747 430.216 41.688C429.629 40.7013 429.336 39.4613 429.336 37.968H435.016C435.016 38.608 435.136 39.1147 435.376 39.488C435.642 39.8613 436.109 40.1413 436.776 40.328C437.442 40.5147 438.402 40.608 439.656 40.608C441.389 40.608 442.589 40.3947 443.256 39.968C443.922 39.568 444.256 38.9813 444.256 38.208C444.256 37.568 444.002 37.0613 443.496 36.688C442.989 36.3147 442.229 36.128 441.216 36.128H438.136C435.949 36.128 434.309 35.7413 433.216 34.968C432.149 34.168 431.616 33.1547 431.616 31.928C431.616 31.1547 431.842 30.408 432.296 29.688C432.749 28.9413 433.362 28.328 434.136 27.848C432.802 27.128 431.829 26.288 431.216 25.328C430.629 24.3413 430.336 23.1547 430.336 21.768C430.336 19.3947 431.189 17.5147 432.896 16.128C434.602 14.7147 436.856 14.008 439.656 14.008C441.789 14.0613 443.589 13.848 445.056 13.368C446.549 12.888 448.082 12.1813 449.656 11.248L451.136 15.928ZM439.816 18.168C438.829 18.168 438.042 18.488 437.456 19.128C436.896 19.7413 436.616 20.5947 436.616 21.688C436.616 22.8347 436.896 23.728 437.456 24.368C438.042 24.9813 438.829 25.288 439.816 25.288C440.856 25.288 441.642 24.9813 442.176 24.368C442.736 23.7547 443.016 22.8347 443.016 21.608C443.016 19.3147 441.949 18.168 439.816 18.168Z" fill="#545454"/>
<path d="M459.927 14.688V35.928H453.607V14.688H459.927ZM456.727 3.488C457.82 3.488 458.714 3.83467 459.407 4.528C460.127 5.19467 460.487 6.048 460.487 7.088C460.487 8.128 460.127 8.99467 459.407 9.688C458.714 10.3547 457.82 10.688 456.727 10.688C455.634 10.688 454.74 10.3547 454.047 9.688C453.354 8.99467 453.007 8.128 453.007 7.088C453.007 6.048 453.354 5.19467 454.047 4.528C454.74 3.83467 455.634 3.488 456.727 3.488Z" fill="#545454"/>
<path d="M474.096 14.008C477.349 14.008 479.896 15.008 481.736 17.008C483.576 18.9813 484.496 21.7547 484.496 25.328C484.496 27.5947 484.069 29.5813 483.216 31.288C482.389 32.968 481.189 34.2747 479.616 35.208C478.069 36.1413 476.229 36.608 474.096 36.608C470.869 36.608 468.323 35.6213 466.456 33.648C464.616 31.648 463.696 28.8613 463.696 25.288C463.696 23.0213 464.109 21.048 464.936 19.368C465.789 17.6613 466.989 16.3413 468.536 15.408C470.109 14.4747 471.963 14.008 474.096 14.008ZM474.096 18.648C472.816 18.648 471.856 19.1947 471.216 20.288C470.576 21.3547 470.256 23.0213 470.256 25.288C470.256 27.608 470.563 29.3013 471.176 30.368C471.816 31.4347 472.789 31.968 474.096 31.968C475.376 31.968 476.336 31.4347 476.976 30.368C477.616 29.2747 477.936 27.5947 477.936 25.328C477.936 23.008 477.616 21.3147 476.976 20.248C476.363 19.1813 475.403 18.648 474.096 18.648Z" fill="#545454"/>
<path d="M287.416 22.928C287.416 17.4052 291.893 12.928 297.416 12.928C302.939 12.928 307.416 17.4052 307.416 22.928C307.416 28.4508 302.939 32.928 297.416 32.928C291.893 32.928 287.416 28.4508 287.416 22.928Z" fill="url(#paint0_linear_30_2)"/>
<defs>
<linearGradient id="paint0_linear_30_2" x1="297.416" y1="12.928" x2="297.416" y2="32.928" gradientUnits="userSpaceOnUse">
<stop offset="1" stop-color="#FF3838"/>
</linearGradient>
</defs>
</svg>
